<?xml version="1.0" encoding="utf-8"?>
<svg xmlns="http://www.w3.org/2000/svg" viewBox="234.799 15.9736 268.4022 246.0523" width="268.402px" height="246.052px" preserveAspectRatio="none"><path d="M 356.799 17.015 C 347.531 19.098 335.299 25.465 328.299 31.849 C 324.811 35.03 320.157 40.818 317.182 45.673 C 307.751 61.066 243.645 171.631 240.643 177.681 C 237.516 183.984 234.799 195.766 234.799 203.025 C 234.799 205.403 235.468 210.876 236.286 215.187 C 240.257 236.12 255.624 253.256 276.299 259.807 L 283.299 262.025 L 368.299 262.025 C 461.886 262.025 458.261 262.247 471.799 255.68 C 485.549 249.011 496.508 235.445 501.411 219.025 C 503.813 210.984 503.795 195.218 501.374 187.025 C 498.735 178.09 496.837 174.619 462.837 116.525 C 445.616 87.1 428.775 58.306 425.413 52.537 C 414.911 34.522 401.256 22.938 384.831 18.11 C 376.833 15.76 364.523 15.279 356.799 17.015 M 362.946 44.589 C 357.418 45.69 351.31 49.293 346.668 54.193 C 344.671 56.301 328.729 82.55 311.24 112.525 C 293.751 142.5 276.583 171.912 273.088 177.885 C 264.243 193.003 263.509 194.927 263.49 203.079 C 263.463 214.36 269.364 225.106 278.175 229.819 C 282.231 231.989 283.125 232.033 332.549 232.525 C 360.187 232.8 382.8 232.929 382.799 232.811 C 382.799 232.693 381.12 231.456 379.067 230.061 C 375.956 227.947 374.167 227.523 368.317 227.51 C 341.019 227.453 316.469 208.113 309.307 181.025 C 307.174 172.958 307.161 158.678 309.28 150.525 C 312.928 136.488 323.301 122.033 335.567 113.891 C 338.671 111.83 345.056 108.79 349.755 107.134 C 357.189 104.514 359.663 104.125 368.799 104.136 C 377.648 104.146 380.555 104.583 387.289 106.91 C 406.533 113.562 420.127 126.522 427.584 145.328 C 429.996 151.409 430.24 153.268 430.244 165.525 C 430.248 177.011 429.918 179.91 428.035 184.957 C 424.874 193.431 420.16 200.905 413.582 207.871 C 410.438 211.2 407.963 214.01 408.082 214.114 C 410.918 216.591 433.033 230.049 435.97 231.085 C 438.214 231.877 443.317 232.525 447.311 232.525 C 453.315 232.525 455.495 232.042 459.917 229.732 C 472.709 223.049 478.389 205.744 472.457 191.525 C 471.195 188.5 453.612 157.675 433.384 123.025 C 394.086 55.709 391.467 51.889 381.299 47.067 C 375.383 44.261 368.955 43.393 362.946 44.589 M 359.662 133.032 C 329.85 142.599 327.822 184.117 356.526 197.258 C 361.347 199.465 363.015 199.711 370.646 199.344 C 380.726 198.86 387.442 195.876 393.467 189.207 C 399.593 182.427 402.305 175.28 402.264 166.025 C 402.223 156.672 399.466 149.483 393.306 142.665 C 385.377 133.888 370.376 129.593 359.662 133.032" stroke="none" fill="#111827" fill-rule="evenodd" id="object-0"/></svg>