<svg xmlns="http://www.w3.org/2000/svg" width="738" height="278" viewBox="0 0 738 278" version="1.1"><path d="M 135 16.490 C 125.732 18.573, 113.500 24.940, 106.500 31.324 C 103.012 34.505, 98.358 40.293, 95.383 45.148 C 85.952 60.541, 21.846 171.106, 18.844 177.156 C 15.717 183.459, 13 195.241, 13 202.500 C 13 204.878, 13.669 210.351, 14.487 214.662 C 18.458 235.595, 33.825 252.731, 54.500 259.282 L 61.500 261.500 146.500 261.500 C 240.087 261.500, 236.462 261.722, 250 255.155 C 263.750 248.486, 274.709 234.920, 279.612 218.500 C 282.014 210.459, 281.996 194.693, 279.575 186.500 C 276.936 177.565, 275.038 174.094, 241.038 116 C 223.817 86.575, 206.976 57.781, 203.614 52.012 C 193.112 33.997, 179.457 22.413, 163.032 17.585 C 155.034 15.235, 142.724 14.754, 135 16.490 M 141.147 44.064 C 135.619 45.165, 129.511 48.768, 124.869 53.668 C 122.872 55.776, 106.930 82.025, 89.441 112 C 71.952 141.975, 54.784 171.387, 51.289 177.360 C 42.444 192.478, 41.710 194.402, 41.691 202.554 C 41.664 213.835, 47.565 224.581, 56.376 229.294 C 60.432 231.464, 61.326 231.508, 110.750 232 C 138.388 232.275, 161.001 232.404, 161 232.286 C 161 232.168, 159.321 230.931, 157.268 229.536 C 154.157 227.422, 152.368 226.998, 146.518 226.985 C 119.220 226.928, 94.670 207.588, 87.508 180.500 C 85.375 172.433, 85.362 158.153, 87.481 150 C 91.129 135.963, 101.502 121.508, 113.768 113.366 C 116.872 111.305, 123.257 108.265, 127.956 106.609 C 135.390 103.989, 137.864 103.600, 147 103.611 C 155.849 103.621, 158.756 104.058, 165.490 106.385 C 184.734 113.037, 198.328 125.997, 205.785 144.803 C 208.197 150.884, 208.441 152.743, 208.445 165 C 208.449 176.486, 208.119 179.385, 206.236 184.432 C 203.075 192.906, 198.361 200.380, 191.783 207.346 C 188.639 210.675, 186.164 213.485, 186.283 213.589 C 189.119 216.066, 211.234 229.524, 214.171 230.560 C 216.415 231.352, 221.518 232, 225.512 232 C 231.516 232, 233.696 231.517, 238.118 229.207 C 250.910 222.524, 256.590 205.219, 250.658 191 C 249.396 187.975, 231.813 157.150, 211.585 122.500 C 172.287 55.184, 169.668 51.364, 159.500 46.542 C 153.584 43.736, 147.156 42.868, 141.147 44.064 M 561.500 55.890 C 543.908 64.009, 549.639 89, 569.092 89 C 574.987 89, 578.641 87.675, 582.373 84.186 C 589.319 77.692, 589.906 66.906, 583.683 60.118 C 580.627 56.784, 574.229 54.044, 569.500 54.044 C 567.300 54.044, 563.700 54.875, 561.500 55.890 M 371.648 67.761 C 371.373 68.206, 365.547 82.729, 358.701 100.035 C 346.019 132.098, 324.335 186.847, 313.961 213 L 308.209 227.500 323.278 227.777 C 331.565 227.929, 338.682 227.704, 339.092 227.277 C 339.503 226.850, 342.846 218.963, 346.522 209.750 L 353.206 193 387.365 193 L 421.525 193 428.134 210.250 L 434.742 227.500 450.988 227.775 C 463.850 227.993, 467.122 227.785, 466.701 226.775 C 465.237 223.273, 423.859 117.995, 414.711 94.500 L 404.198 67.500 388.173 67.226 C 379.359 67.075, 371.923 67.315, 371.648 67.761 M 375.228 133.362 C 368.503 150.544, 363 164.917, 363 165.301 C 363 165.686, 374.186 166, 387.858 166 L 412.715 166 400.421 134.396 C 393.658 117.014, 387.975 102.642, 387.791 102.457 C 387.606 102.273, 381.953 116.180, 375.228 133.362 M 663 104.690 C 652.891 106.381, 639.560 113.658, 634.282 120.368 C 633.144 121.816, 631.939 123, 631.606 123 C 631.273 123, 631 119.625, 631 115.500 L 631 108 617 108 L 603 108 603 168.027 L 603 228.055 617.250 227.777 L 631.500 227.500 632.025 190.500 C 632.564 152.532, 632.749 150.757, 636.848 144 C 639.485 139.653, 643.368 135.888, 647.500 133.671 C 650.780 131.912, 653.211 131.523, 661 131.513 C 671.883 131.498, 676.432 133.204, 681.154 139.070 C 686.428 145.622, 687 150.726, 687 191.210 L 687 228 701.500 228 L 716 228 716 188.458 C 716 156.324, 715.704 147.472, 714.419 141.208 C 711.322 126.111, 703.793 114.969, 692.987 109.493 C 684.509 105.197, 671.975 103.190, 663 104.690 M 529.500 106.402 C 522.445 108.639, 516.734 112.112, 510.795 117.777 L 505 123.304 505 115.652 L 505 108 490.750 108 L 476.500 108 476.733 167.750 L 476.966 227.500 490.923 227.777 L 504.880 228.054 505.204 193.777 C 505.514 160.980, 505.625 159.259, 507.772 153.921 C 510.847 146.275, 515.946 140.651, 522.776 137.373 C 527.536 135.089, 529.889 134.615, 536.747 134.563 L 544.995 134.500 544.997 119.750 L 545 105 539.250 105.067 C 536.087 105.104, 531.700 105.705, 529.500 106.402 M 555 167.500 L 555 228 569.500 228 L 584 228 584 167.500 L 584 107 569.500 107 L 555 107 555 167.500 M 137.863 132.507 C 108.051 142.074, 106.023 183.592, 134.727 196.733 C 139.548 198.940, 141.216 199.186, 148.847 198.819 C 158.927 198.335, 165.643 195.351, 171.668 188.682 C 177.794 181.902, 180.506 174.755, 180.465 165.500 C 180.424 156.147, 177.667 148.958, 171.507 142.140 C 163.578 133.363, 148.577 129.068, 137.863 132.507" stroke="none" fill="currentColor" fill-rule="evenodd"/></svg>